HIERARCHY
ROOT joint_Root
{
	OFFSET 0.0 0.0 0.0
	CHANNELS 6 Xposition Yposition Zposition Zrotation Xrotation Yrotation 
	JOINT Hips
	{
		OFFSET 4.5925 91.4895 -427.239
		CHANNELS 6 Xposition Yposition Zposition Zrotation Xrotation Yrotation 
		JOINT Spine
		{
			OFFSET 15.7357 0.0 0.0
			CHANNELS 6 Xposition Yposition Zposition Zrotation Xrotation Yrotation 
			JOINT Chest
			{
				OFFSET 8.98455 -0.406207 0.0
				CHANNELS 6 Xposition Yposition Zposition Zrotation Xrotation Yrotation 
				JOINT Neck
				{
					OFFSET 16.3773 0.0 0.0
					CHANNELS 6 Xposition Yposition Zposition Zrotation Xrotation Yrotation 
					JOINT Head
					{
						OFFSET 6.45672 0.0 0.0
						CHANNELS 6 Xposition Yposition Zposition Zrotation Xrotation Yrotation 
						End Site
						{
							OFFSET 0.0 0.0 0.0
						}
					}
				}
				JOINT Shoulder_L
				{
					OFFSET 12.9942 -0.242716 4.98039
					CHANNELS 6 Xposition Yposition Zposition Zrotation Xrotation Yrotation 
					JOINT UpperArm_L
					{
						OFFSET 5.34809 0.0 0.0
						CHANNELS 6 Xposition Yposition Zposition Zrotation Xrotation Yrotation 
						JOINT LowerArm_L
						{
							OFFSET 24.3286 1.87007e-05 0.0
							CHANNELS 6 Xposition Yposition Zposition Zrotation Xrotation Yrotation 
							JOINT Hand_L
							{
								OFFSET 22.2916 0.0 0.0
								CHANNELS 6 Xposition Yposition Zposition Zrotation Xrotation Yrotation 
								End Site
								{
									OFFSET 0.0 0.0 0.0
								}
							}
						}
					}
				}
				JOINT Shoulder_R
				{
					OFFSET 12.9945 -0.242716 -4.98039
					CHANNELS 6 Xposition Yposition Zposition Zrotation Xrotation Yrotation 
					JOINT UpperArm_R
					{
						OFFSET -5.34813 0.0 0.0
						CHANNELS 6 Xposition Yposition Zposition Zrotation Xrotation Yrotation 
						JOINT LowerArm_R
						{
							OFFSET -24.3289 0.000322201 0.0
							CHANNELS 6 Xposition Yposition Zposition Zrotation Xrotation Yrotation 
							JOINT Hand_R
							{
								OFFSET -22.2915 -0.000108084 0.0
								CHANNELS 6 Xposition Yposition Zposition Zrotation Xrotation Yrotation 
								End Site
								{
									OFFSET 0.0 0.0 0.0
								}
							}
						}
					}
				}
			}
		}
		JOINT UpperLeg_L
		{
			OFFSET -2.19248 -6.46944 0.0
			CHANNELS 6 Xposition Yposition Zposition Zrotation Xrotation Yrotation 
			JOINT LowerLeg_L
			{
				OFFSET 39.0811 0.0 -1.23785e-05
				CHANNELS 6 Xposition Yposition Zposition Zrotation Xrotation Yrotation 
				JOINT Foot_L
				{
					OFFSET 40.9854 0.0 -1.26872e-05
					CHANNELS 6 Xposition Yposition Zposition Zrotation Xrotation Yrotation 
					JOINT Toes_L
					{
						OFFSET 11.7543 0.0 0.0
						CHANNELS 6 Xposition Yposition Zposition Zrotation Xrotation Yrotation 
						End Site
						{
							OFFSET 0.0 0.0 0.0
						}
					}
				}
			}
		}
		JOINT UpperLeg_R
		{
			OFFSET -2.19251 6.46944 0.0
			CHANNELS 6 Xposition Yposition Zposition Zrotation Xrotation Yrotation 
			JOINT LowerLeg_R
			{
				OFFSET -39.0811 -0.00228153 -0.0401928
				CHANNELS 6 Xposition Yposition Zposition Zrotation Xrotation Yrotation 
				JOINT Foot_R
				{
					OFFSET -40.9854 0.0 0.0
					CHANNELS 6 Xposition Yposition Zposition Zrotation Xrotation Yrotation 
					JOINT Toes_R
					{
						OFFSET -11.7543 0.0 0.0
						CHANNELS 6 Xposition Yposition Zposition Zrotation Xrotation Yrotation 
						End Site
						{
							OFFSET 0.0 0.0 0.0
						}
					}
				}
			}
		}
	}
}
MOTION
Frames:	4
Frame Time:	0.0333333
0.000000 0.000000 0.000000 0.000000 0.000000 -0.000000 2.154310 86.676000 -24.933500 90.229500 5.616620 -8.420650 15.735700 0.000005 -0.000001 62.139500 81.927700 -59.469600 8.984550 -0.406207 -0.000000 6.734090 -7.545150 5.784670 16.377300 -0.000001 -0.000001 -1.760930 -2.011960 -0.836287 6.456720 -0.000001 -0.000000 -8.857610 1.211370 -0.894544 12.994200 -0.242716 4.980390 -91.085000 3.870730 -74.331400 5.348090 -0.000007 -0.000001 -57.166400 30.951400 -10.702600 24.328600 0.000019 0.000005 10.229600 12.497100 -39.874000 22.291600 -0.000001 0.000005 1.936870 5.460290 -4.977940 12.994500 -0.242716 -4.980390 87.413700 11.548000 -77.282400 -5.348130 -0.000001 -0.000004 -51.415800 16.085200 -1.279480 -24.328900 0.000322 -0.000009 -10.303300 -9.821010 -46.818100 -22.291500 -0.000108 -0.000004 7.000490 5.605190 -11.617000 -2.192480 -6.469440 -0.000000 -173.872000 -6.636800 -1.426970 39.081100 -0.000007 -0.000012 0.498717 0.086693 99.859800 40.985400 -0.000006 -0.000013 3.368610 -8.683440 -30.638100 11.754300 -0.000000 0.000003 -0.003597 -0.047192 -18.496200 -2.192510 6.469440 -0.000001 -171.370000 17.739800 137.605000 -39.081100 -0.002282 -0.040193 0.038319 -0.034959 45.078900 -40.985400 0.000008 0.000006 7.074840 1.237130 -63.795300 -11.754300 -0.000006 -0.000006 -0.016352 -0.146168 -22.539000
0.000000 0.000000 0.000000 0.000000 0.000000 -0.000000 1.892430 83.282400 -14.340900 87.627800 -1.040920 -6.622180 15.735700 0.000005 -0.000001 76.422600 81.606200 -73.386200 8.984550 -0.406207 -0.000000 8.678460 -3.897570 6.365100 16.377300 -0.000001 -0.000001 -3.601380 -0.320640 -0.250979 6.456720 -0.000001 -0.000000 -9.183330 2.661590 -2.598640 12.994200 -0.242716 4.980390 -91.400000 4.687930 -73.349000 5.348090 -0.000007 -0.000001 -59.615500 30.647000 0.826587 24.328600 0.000019 0.000005 10.145400 20.665000 -26.913000 22.291600 -0.000001 0.000005 -2.970470 5.416230 -3.445170 12.994500 -0.242716 -4.980390 87.891600 11.898000 -79.878100 -5.348130 -0.000001 -0.000004 -46.935600 12.171700 -18.271600 -24.328900 0.000322 -0.000009 -11.529300 -8.803370 -53.124800 -22.291500 -0.000108 -0.000004 10.515300 5.615780 -12.337700 -2.192480 -6.469440 -0.000000 -174.635000 -12.978400 -14.464200 39.081100 -0.000007 -0.000012 0.389207 0.230282 120.609000 40.985400 -0.000006 -0.000013 7.323080 -9.205580 -28.425100 11.754300 -0.000000 0.000003 -0.003897 -0.050376 -18.625900 -2.192510 6.469440 -0.000001 -172.547000 4.886990 141.367000 -39.081100 -0.002282 -0.040193 -0.571684 0.350429 58.636400 -40.985400 0.000008 0.000006 5.713840 -5.970300 -77.142500 -11.754300 -0.000006 -0.000006 -0.004721 -0.058743 -18.963100
0.000000 0.000000 0.000000 0.000000 0.000000 -0.000000 1.411520 81.373100 -4.053510 86.185300 -5.617410 -6.360880 15.735700 0.000005 -0.000001 87.235000 81.367800 -84.340700 8.984550 -0.406207 -0.000000 9.505470 -0.783985 5.849320 16.377300 -0.000001 -0.000001 -4.151260 0.434335 0.807424 6.456720 -0.000001 -0.000000 -9.547160 2.414470 -2.909570 12.994200 -0.242716 4.980390 -90.872400 2.678200 -71.942600 5.348090 -0.000007 -0.000001 -63.281700 26.326400 11.463500 24.328600 0.000019 0.000005 11.514100 32.263400 -20.894300 22.291600 -0.000001 0.000005 -8.247010 5.397060 -2.854530 12.994500 -0.242716 -4.980390 88.808300 9.769230 -83.016500 -5.348130 -0.000001 -0.000004 -47.855300 6.569500 -32.726400 -24.328900 0.000322 -0.000009 -9.424250 -5.173380 -61.514500 -22.291500 -0.000108 -0.000004 9.341060 5.603600 -11.548800 -2.192480 -6.469440 -0.000000 -177.488000 -14.530600 -34.391000 39.081100 -0.000007 -0.000012 -0.130177 -0.123805 133.569000 40.985400 -0.000006 -0.000013 10.575100 -6.217260 -24.138000 11.754300 -0.000000 0.000003 -0.003284 -0.043777 -18.357200 -2.192510 6.469440 -0.000001 -171.480000 6.513220 148.516000 -39.081100 -0.002282 -0.040193 -0.057217 0.031342 62.575300 -40.985400 0.000008 0.000006 11.084300 -3.819440 -87.824200 -11.754300 -0.000006 -0.000006 -0.004945 -0.060929 -19.052100
0.000000 0.000000 0.000000 0.000000 0.000000 -0.000000 1.748600 81.564400 7.764440 88.421100 -7.951720 -7.000760 15.735700 0.000005 -0.000001 99.009900 81.732600 -97.158200 8.984550 -0.406207 -0.000000 8.532000 2.589410 3.507250 16.377300 -0.000001 -0.000001 -4.003840 -0.242289 1.580510 6.456720 -0.000001 -0.000000 -8.823840 0.331924 -2.865200 12.994200 -0.242716 4.980390 -90.308800 0.881475 -70.668200 5.348090 -0.000007 -0.000001 -64.432000 25.928800 19.471300 24.328600 0.000019 0.000005 15.382000 37.619600 -24.263900 22.291600 -0.000001 0.000005 -11.541500 5.415190 -3.436030 12.994500 -0.242716 -4.980390 89.231700 6.823090 -83.558000 -5.348130 -0.000001 -0.000004 -46.827200 2.680400 -41.934400 -24.328900 0.000322 -0.000009 -6.465500 -2.280550 -70.664400 -22.291500 -0.000108 -0.000004 9.237240 5.583540 -10.413300 -2.192480 -6.469440 -0.000000 176.237000 -11.385700 -47.798600 39.081100 -0.000007 -0.000012 -0.509356 -0.474223 132.954000 40.985400 -0.000006 -0.000013 11.793900 -7.495570 -32.945000 11.754300 -0.000000 0.000003 -0.002152 -0.030604 -17.821200 -2.192510 6.469440 -0.000001 -176.851000 7.345420 159.217000 -39.081100 -0.002282 -0.040193 0.186246 -0.113803 58.128600 -40.985400 0.000008 0.000006 10.820000 -0.928100 -92.692400 -11.754300 -0.000006 -0.000006 -0.008879 -0.095063 -20.445100
